<svg xmlns="http://www.w3.org/2000/svg" viewBox="0 0 160 200" shape-rendering="geometricPrecision">
  <defs>
    <clipPath id="badge3">
      <rect x="0" y="0" width="160" height="200" rx="12"/>
    </clipPath>
  </defs>
  <!-- Background: dark red/crimson like G League -->
  <rect x="0" y="0" width="160" height="200" rx="12" fill="#BB3430"/>
  <!-- Silver/grey accent stripe -->
  <rect x="0" y="0" width="160" height="10" rx="0" fill="#A0A0A0"/>
  <rect x="0" y="190" width="160" height="10" rx="0" fill="#A0A0A0"/>
  <!-- Player silhouette (white) -->
  <g fill="white" clip-path="url(#badge3)">
    <!-- Head -->
    <ellipse cx="80" cy="42" rx="13" ry="15"/>
    <!-- Torso - different pose (hands on hips/ready stance) -->
    <path d="M70,56 C62,62 58,74 60,89 L66,119 L80,116 L94,119 L100,89 C102,74 98,62 90,56 Z"/>
    <!-- Left arm extended with ball -->
    <path d="M68,62 L46,44 L41,52 L64,69 Z"/>
    <!-- Right arm -->
    <path d="M92,64 L114,84 L119,78 L97,58 Z"/>
    <!-- Ball -->
    <circle cx="36" cy="41" r="14"/>
    <line x1="23" y1="41" x2="49" y2="41" stroke="#BB3430" stroke-width="1.5"/>
    <line x1="36" y1="28" x2="36" y2="54" stroke="#BB3430" stroke-width="1.5"/>
    <path d="M24,33 Q36,27 48,33" fill="none" stroke="#BB3430" stroke-width="1.5"/>
    <path d="M24,49 Q36,55 48,49" fill="none" stroke="#BB3430" stroke-width="1.5"/>
    <!-- Left leg -->
    <path d="M72,117 L66,154 L74,156 L80,122 Z"/>
    <!-- Right leg -->
    <path d="M88,117 L96,152 L104,150 L96,116 Z"/>
    <!-- Feet -->
    <path d="M64,154 L74,156 L76,166 L60,164 Z"/>
    <path d="M96,152 L106,151 L110,161 L94,162 Z"/>
  </g>
  <!-- Bottom label -->
  <rect x="0" y="168" width="160" height="32" rx="0" fill="#1a0000" opacity="0.85"/>
  <text x="80" y="191" text-anchor="middle" font-family="Arial Black, Arial" font-weight="900" font-size="20" fill="white" letter-spacing="2">MBGL</text>
</svg>
